<svg xmlns="http://www.w3.org/2000/svg" viewBox="0 0 29.94 36.94"><defs><style>.cls-1{fill:none;}.cls-1,.cls-5{stroke:#000;stroke-miterlimit:10;stroke-width:0.3px;}.cls-2,.cls-5{fill:#ffc164;}.cls-3{fill:#8d6f4d;}.cls-4{fill:#ffe6bf;}</style></defs><g id="Layer_2" data-name="Layer 2"><g id="Layer_2-2" data-name="Layer 2"><line class="cls-1" x1="25.07" y1="8.05" x2="27.45" y2="6.68"/><line class="cls-1" x1="25.57" y1="10.39" x2="28.31" y2="10.67"/><line class="cls-1" x1="25.46" y1="9.15" x2="27.95" y2="8.62"/><path class="cls-2" d="M22.25,3.42c0-1.1-.11-3-.65-3.24s-1.75.76-2.39,1.34a10.83,10.83,0,0,0-3-.63C3.6.07,1,17.46,1,17.46-1.88,26.9,2.64,36.9,13.32,36.08s12.46-9.31,12.73-12.6C26.27,20.88,27.85,8.76,22.25,3.42Z"/><path class="cls-1" d="M18.06,10.47a1.25,1.25,0,0,0,1.38.64,1.18,1.18,0,0,0,.74-.57,1.16,1.16,0,0,0,.91.15A1.27,1.27,0,0,0,22,9.47"/><path d="M20.9,8.14c.05.4-1.13.89-1.13.89s-1.27-.17-1.32-.57.45-.81,1.13-.9S20.85,7.73,20.9,8.14Z"/><path class="cls-1" d="M21.93,7.71a1.08,1.08,0,0,1,2.14,0"/><path class="cls-1" d="M14.57,9.26a1.16,1.16,0,0,1,.75-1.21,1.17,1.17,0,0,1,1.3.58"/><path class="cls-2" d="M11.16,7.62s-1.32-4.07-.3-4.27,3.36,1.12,3.36,1.12Z"/><path class="cls-3" d="M11.93,6.69S10.56,4,11.29,4.11a6.6,6.6,0,0,1,1.93.83Z"/><path class="cls-3" d="M20.28,2.53S21-.31,21.48.3s.65,3.24.65,3.24Z"/><path class="cls-3" d="M10.84,12.75a1,1,0,0,0,0-2.07A18.84,18.84,0,0,1,3.8,9c-.32.63-.61,1.26-.87,1.88a21.2,21.2,0,0,0,7.9,1.86Z"/><path class="cls-3" d="M9.72,17.94a1,1,0,0,0-.16-2.06,19.16,19.16,0,0,1-8-1c-.24.88-.39,1.58-.47,2A20.62,20.62,0,0,0,7.78,18C8.4,18,9.05,18,9.72,17.94Z"/><path class="cls-3" d="M8.43,22.93a1,1,0,0,0,.83-1.2,1,1,0,0,0-1.2-.82A19.79,19.79,0,0,1,.3,20.72,18.35,18.35,0,0,0,.15,22.8a21.8,21.8,0,0,0,4.49.47A20.58,20.58,0,0,0,8.43,22.93Z"/><path class="cls-1" d="M15.54,15.8a4.12,4.12,0,0,0,2.23,3.05,2.33,2.33,0,0,1,1.09.79A1.16,1.16,0,0,1,18.57,21a1.8,1.8,0,0,1-1.41.37,4.2,4.2,0,0,1-1.4-.5A7.37,7.37,0,0,1,12.61,18"/><line class="cls-1" x1="14.8" y1="10.67" x2="12.12" y2="10.06"/><line class="cls-1" x1="15.02" y1="13.05" x2="12.49" y2="14.13"/><line class="cls-1" x1="14.76" y1="11.83" x2="12.22" y2="12.07"/><path class="cls-4" d="M24.21,8.3c0,.15-.26.33-.64.4s-.71,0-.74-.13.26-.32.64-.4S24.18,8.16,24.21,8.3Z"/><path class="cls-4" d="M17.07,9.62c0,.15-.26.33-.64.4s-.71,0-.74-.13.26-.32.64-.4S17,9.48,17.07,9.62Z"/><path class="cls-1" d="M22.25,3.42c0-1.1-.11-3-.65-3.24s-1.75.76-2.39,1.34a10.83,10.83,0,0,0-3-.63C3.6.07,1,17.46,1,17.46-1.88,26.9,2.64,36.9,13.32,36.08s12.46-9.31,12.73-12.6C26.27,20.88,27.85,8.76,22.25,3.42Z"/><path class="cls-5" d="M5.38,34.3S16.6,36.9,21,29.64s4.8-18.07,8.08-17.11c1.12.33.65,2.94.54,3.61a31,31,0,0,1-2.43,7.24c-2,4.5-3.69,9.22-8.19,11.67a13.74,13.74,0,0,1-6,1.74,11.39,11.39,0,0,1-3.8-.54C7.87,35.84,6.6,34.58,5.38,34.3Z"/></g></g></svg>