<svg xmlns="http://www.w3.org/2000/svg" viewBox="0 0 26.24 41.47"><defs><style>.cls-1{fill:#fff;}.cls-2{fill:#999;}.cls-3{fill:none;stroke:#000;stroke-miterlimit:10;stroke-width:0.3px;}.cls-4{fill:#fedae0;}</style></defs><g id="Layer_2" data-name="Layer 2"><g id="Layer_2-2" data-name="Layer 2"><path class="cls-1" d="M22.28,27.86a6.92,6.92,0,0,1,1.49,4.26,6.39,6.39,0,0,1-1.62,4C20.87,37.6,19.26,38,17.63,39c-2.14,1.32-.94,2.69,1,2.2a10.49,10.49,0,0,0,5.27-3.15c1.9-2.26,4.15-7.24-1.07-12.94Z"/><path class="cls-2" d="M24.68,32.1A.94.94,0,0,0,25,33.39a9,9,0,0,0,.93.46,8.1,8.1,0,0,0,.11-2.05l-.08,0A1,1,0,0,0,24.68,32.1Z"/><path class="cls-2" d="M23.34,35.81A1,1,0,0,0,23.89,37l.64.24a10.31,10.31,0,0,0,.91-1.69l-.87-.32A1,1,0,0,0,23.34,35.81Z"/><path class="cls-2" d="M22.4,37.37a.94.94,0,0,0-.35,1.29,5.86,5.86,0,0,0,.42.63A9.29,9.29,0,0,0,23.91,38l-.22-.32A.94.94,0,0,0,22.4,37.37Z"/><path class="cls-3" d="M22.28,27.86a6.92,6.92,0,0,1,1.49,4.26,6.39,6.39,0,0,1-1.62,4C20.87,37.6,19.26,38,17.63,39c-2.14,1.32-.94,2.69,1,2.2a10.49,10.49,0,0,0,5.27-3.15c1.9-2.26,4.15-7.24-1.07-12.94Z"/><path class="cls-1" d="M16.55,36.83C32.63,30.91,18,6.21,18,6.21,17.62,2.77,16.79,0,15.84.15s-2.25,4.51-2.25,4.51A78,78,0,0,0,6,6.44S3.5,3.48,2.31,3.6s-.24,5.81-.24,5.81S2.31,17,5,21.16c0,0-3.8,7.36-1.19,12.82S12,38.49,16.55,36.83Z"/><path class="cls-2" d="M2.78,8S2.19,4.66,2.9,4.9,4.8,7,4.8,7Z"/><path class="cls-2" d="M14.59,4.83s1.16-3.17,1.66-2.6.56,2.8.56,2.8Z"/><path class="cls-2" d="M15.62,11a1,1,0,0,0,.31,1.85.85.85,0,0,0,.31-.06,10.71,10.71,0,0,0,3.87-2.4c-.31-.67-.6-1.28-.87-1.81A9.08,9.08,0,0,1,15.62,11Z"/><path class="cls-2" d="M15.33,15.43a1,1,0,0,0,.94.81h.14a23.79,23.79,0,0,0,5.47-1.56c-.22-.61-.44-1.2-.67-1.77a21.59,21.59,0,0,1-5.08,1.45A1,1,0,0,0,15.33,15.43Z"/><path class="cls-2" d="M17.93,21.22a.95.95,0,0,0-.59,1.8,16.41,16.41,0,0,0,4.91.64c.55,0,1.13,0,1.75-.08-.06-.62-.13-1.25-.23-1.88A17,17,0,0,1,17.93,21.22Z"/><path class="cls-2" d="M16.19,25.73A.93.93,0,0,0,17,26.81a55.36,55.36,0,0,0,7,.65c.07-.62.11-1.25.12-1.9a57.35,57.35,0,0,1-6.8-.62A1,1,0,0,0,16.19,25.73Z"/><path class="cls-2" d="M16.8,27.8a.95.95,0,1,0-1.41,1.27,13.9,13.9,0,0,0,6.67,3.69A10.86,10.86,0,0,0,23,31,12.33,12.33,0,0,1,16.8,27.8Z"/><path class="cls-2" d="M7.9,10.26a.94.94,0,0,0,.43-.1,1,1,0,0,0,.42-1.27,9.21,9.21,0,0,1-.69-3l-1.85.5a10.68,10.68,0,0,0,.84,3.36A1,1,0,0,0,7.9,10.26Z"/><path class="cls-2" d="M12.34,9.24a.92.92,0,0,0,.69-.3A1,1,0,0,0,13,7.6,4.81,4.81,0,0,1,11.64,5c-.62.13-1.25.27-1.85.42A6.53,6.53,0,0,0,11.69,9,1,1,0,0,0,12.34,9.24Z"/><path d="M10.81,11.33c0,.21-.56.47-.56.47s-.65-.07-.68-.28.22-.41.56-.47S10.78,11.13,10.81,11.33Z"/><path class="cls-3" d="M8.58,12.45c.2.6.63,1,1.08,1a.83.83,0,0,0,.63-.5.88.88,0,0,0,.74.33c.45-.06.77-.56.81-1.19"/><path class="cls-3" d="M12.07,10.09a1.19,1.19,0,0,0,1.27.44,1.17,1.17,0,0,0,.95-.95"/><path class="cls-3" d="M6.17,11.19a1.2,1.2,0,0,0,1.27.44,1.2,1.2,0,0,0,1-1"/><path class="cls-4" d="M7.54,12.37c.06.27-.28.58-.77.69s-.92,0-1-.31.28-.58.76-.69S7.48,12.09,7.54,12.37Z"/><path class="cls-4" d="M15.5,10.59c.06.27-.28.58-.77.69s-.92,0-1-.31.28-.59.76-.69S15.44,10.31,15.5,10.59Z"/><line class="cls-3" x1="19.02" y1="8.14" x2="20.87" y2="6.7"/><line class="cls-3" x1="19.44" y1="8.75" x2="21.5" y2="7.73"/><line class="cls-3" x1="19.76" y1="9.4" x2="21.99" y2="9.06"/><line class="cls-3" x1="2.69" y1="14.61" x2="0.57" y2="15.6"/><line class="cls-3" x1="2.42" y1="13.92" x2="0.19" y2="14.45"/><line class="cls-3" x1="2.25" y1="13.21" x2="0.01" y2="13.04"/><path class="cls-4" d="M7.13,22.2a4.58,4.58,0,0,1-.08-2A1.83,1.83,0,0,1,8.31,18.8c.46-.11.95,0,1.41-.07.79-.14,1.4-.86,2.19-.88a1.7,1.7,0,0,1,1.34.72A3.94,3.94,0,0,1,13.87,20a12.72,12.72,0,0,1-.63,8.14c-.39.91-1.11,1.9-2.1,1.82C9,29.81,7.48,23.83,7.13,22.2Z"/><path class="cls-3" d="M16.55,36.83C32.63,30.91,18,6.21,18,6.21,17.62,2.77,16.79,0,15.84.15s-2.25,4.51-2.25,4.51A78,78,0,0,0,6,6.44S3.5,3.48,2.31,3.6s-.24,5.81-.24,5.81S2.31,17,5,21.16c0,0-3.8,7.36-1.19,12.82S12,38.49,16.55,36.83Z"/><path class="cls-1" d="M11.59,34.24a9.53,9.53,0,0,1-2.05,2.2,7,7,0,0,0-1.16,1A1.55,1.55,0,0,0,8,38.87a1.44,1.44,0,0,0,1.38.87A3.35,3.35,0,0,0,11,39.18a9.79,9.79,0,0,0,3.63-3.76Z"/><path class="cls-3" d="M11.59,34.24a9.53,9.53,0,0,1-2.05,2.2,7,7,0,0,0-1.16,1A1.55,1.55,0,0,0,8,38.87a1.44,1.44,0,0,0,1.38.87A3.35,3.35,0,0,0,11,39.18a9.79,9.79,0,0,0,3.63-3.76"/><path class="cls-1" d="M4.83,32.68c0,1.51-1.07,2.78-2.08,3.92a1.51,1.51,0,0,0-.54,1.13,1,1,0,0,0,.92.77,2.24,2.24,0,0,0,1.23-.32,6.62,6.62,0,0,0,3.07-3.44Z"/><path class="cls-3" d="M4.83,32.68c0,1.51-1.07,2.78-2.08,3.92a1.51,1.51,0,0,0-.54,1.13,1,1,0,0,0,.92.77,2.24,2.24,0,0,0,1.23-.32,6.62,6.62,0,0,0,3.07-3.44"/><path class="cls-1" d="M5.12,21a7.79,7.79,0,0,0-3.88,4.2A3.12,3.12,0,0,0,1,26.61a1.48,1.48,0,0,0,.76,1.19,1.77,1.77,0,0,0,2.07-.88c.45-.68.66-1.51,1.14-2.17a3.17,3.17,0,0,1,2.11-1.29Z"/><path class="cls-3" d="M5.12,21a7.79,7.79,0,0,0-3.88,4.2A3.12,3.12,0,0,0,1,26.61a1.48,1.48,0,0,0,.76,1.19,1.77,1.77,0,0,0,2.07-.88c.45-.68.66-1.51,1.14-2.17a3.17,3.17,0,0,1,2.11-1.29"/><path class="cls-1" d="M15.34,18.4a7.75,7.75,0,0,0-3.13,3.11,3.24,3.24,0,0,0-.44,2.41,1.51,1.51,0,0,0,2,1,1.73,1.73,0,0,0,.8-1.2c.12-.49.13-1,.27-1.47a3.11,3.11,0,0,1,3-2.2h-.33Z"/><path class="cls-3" d="M15.34,18.4a7.75,7.75,0,0,0-3.13,3.11,3.24,3.24,0,0,0-.44,2.41,1.51,1.51,0,0,0,2,1,1.73,1.73,0,0,0,.8-1.2c.12-.49.13-1,.27-1.47a3.11,3.11,0,0,1,3-2.2h-.33"/></g></g></svg>