<svg xmlns="http://www.w3.org/2000/svg" viewBox="0 0 35.42 30.5"><defs><style>.cls-1,.cls-4{fill:#adadad;}.cls-2{fill:#fcf8ef;}.cls-3{fill:none;}.cls-3,.cls-4{stroke:#000;stroke-miterlimit:10;stroke-width:0.3px;}</style></defs><g id="Layer_2" data-name="Layer 2"><g id="Layer_2-2" data-name="Layer 2"><path class="cls-1" d="M19.64,23.2a8.51,8.51,0,0,1-.49,4.23,2.92,2.92,0,0,0-.31,1.19,1.13,1.13,0,0,0,.76,1.06,1.24,1.24,0,0,0,1.13-.35,3.29,3.29,0,0,0,.9-1.38,10.18,10.18,0,0,0,.55-2.74c.05-.63.09-1.26.1-1.9Z"/><path class="cls-2" d="M21.63,28a3.29,3.29,0,0,1-.9,1.38,1.24,1.24,0,0,1-1.13.35,1.13,1.13,0,0,1-.76-1.06,2.92,2.92,0,0,1,.31-1.19,4.11,4.11,0,0,0,2.47.52Z"/><path class="cls-3" d="M19.64,23.2a8.51,8.51,0,0,1-.49,4.23,2.92,2.92,0,0,0-.31,1.19,1.13,1.13,0,0,0,.76,1.06,1.24,1.24,0,0,0,1.13-.35,3.29,3.29,0,0,0,.9-1.38,10.18,10.18,0,0,0,.55-2.74c.05-.63.09-1.26.1-1.9"/><path class="cls-4" d="M31.61,10.11a14.6,14.6,0,0,0,1.2,2.14,24.92,24.92,0,0,1,2,5.2,13.7,13.7,0,0,1,.32,5.8c-.36,1.87-1.47,4.23-3.19,5.23-.41.24-.95-.14-1.1-.54-.25-.68.31-1.48.69-2A9.86,9.86,0,0,0,32,15S30.65,11.79,31.61,10.11Z"/><path class="cls-1" d="M19.73,27.51C11.85,28.86,5.57,26,2.45,21S.29,5.55.29,5.55s.12-4.2,1-4a11.15,11.15,0,0,1,2.64,2,35.64,35.64,0,0,1,8.52-1S13.61,0,14.81.15a6.53,6.53,0,0,1,.84,3.24S15.53,7.23,23.21,8c0,0,7.44-1.32,9.48,2.76S33.77,25.11,19.73,27.51Z"/><polygon points="1.31 5.1 1.49 2.67 3.02 4.29 1.31 5.1"/><polygon points="13.28 2.76 14.27 1.05 14.72 3.3 13.28 2.76"/><path class="cls-2" d="M8.66,21.49a2.5,2.5,0,0,0,.18-2.22c-.55-1.12-2.1-1.5-2.57-2.65-.12-.3-.15-.62-.25-.92-.49-1.58-2.37-2.18-4-2.47a14.89,14.89,0,0,1-1.73-.39c.23,2.92.82,6.08,2.16,8.19a13.67,13.67,0,0,0,3.23,3.52c.52-.41,1-.86,1.49-1.32A7.24,7.24,0,0,0,8.66,21.49Z"/><path class="cls-2" d="M15.77,8.57a2,2,0,0,0,.77,2.12c1,.61,2.54-.16,3.51.56a5,5,0,0,1,.82,1,3.89,3.89,0,0,0,4.52.86A5.56,5.56,0,0,0,28.5,8a16.57,16.57,0,0,0-5.29,0A11.47,11.47,0,0,1,17.3,6.09l-.33.4A5.14,5.14,0,0,0,15.77,8.57Z"/><path class="cls-2" d="M30.59,16.84a4.2,4.2,0,0,0-3.37,3.7,7.69,7.69,0,0,0,.71,3.93,12.32,12.32,0,0,0,4.9-6.09,5.27,5.27,0,0,0-.52-1A1.91,1.91,0,0,0,30.59,16.84Z"/><path class="cls-3" d="M19.73,27.51C11.85,28.86,5.57,26,2.45,21S.29,5.55.29,5.55s.12-4.2,1-4a11.15,11.15,0,0,1,2.64,2,35.64,35.64,0,0,1,8.52-1S13.61,0,14.81.15a6.53,6.53,0,0,1,.84,3.24S15.53,7.23,23.21,8c0,0,7.44-1.32,9.48,2.76S33.77,25.11,19.73,27.51Z"/><path class="cls-1" d="M6.23,24.33c1,1.16.92,2.5,1.18,4.05h0a1.52,1.52,0,0,0,0,.21c.13.69.47,1.51,1.18,1.58a1.23,1.23,0,0,0,1.2-1,2.49,2.49,0,0,0,0-1c0-.23-.08-.45-.13-.67-.28-1.22-.62-2.43-1-3.63Z"/><path class="cls-1" d="M9.9,24.19a8.81,8.81,0,0,1,1,3.77c0,.14,0,.27,0,.41a3.32,3.32,0,0,0,.09.89,1.42,1.42,0,0,0,.76,1,1.35,1.35,0,0,0,1.61-.76,2.42,2.42,0,0,0,.24-1.06,6.11,6.11,0,0,0-.07-.86,13.26,13.26,0,0,0-.93-3.34Z"/><path class="cls-2" d="M13.57,28.45a2.42,2.42,0,0,1-.24,1.06,1.35,1.35,0,0,1-1.61.76,1.42,1.42,0,0,1-.76-1,3.32,3.32,0,0,1-.09-.89,11,11,0,0,0,2.68.08Z"/><path class="cls-3" d="M9.9,24.19a8.81,8.81,0,0,1,1,3.77c0,.14,0,.27,0,.41a3.32,3.32,0,0,0,.09.89,1.42,1.42,0,0,0,.76,1,1.35,1.35,0,0,0,1.61-.76,2.42,2.42,0,0,0,.24-1.06,6.11,6.11,0,0,0-.07-.86,13.26,13.26,0,0,0-.93-3.34"/><path class="cls-2" d="M9.87,28.23a2.49,2.49,0,0,1,0,1,1.23,1.23,0,0,1-1.2,1c-.71-.07-1.05-.89-1.18-1.58a1.52,1.52,0,0,1,0-.21,6.24,6.24,0,0,0,2.44-.15Z"/><path class="cls-3" d="M6.58,24.76a8.61,8.61,0,0,1,.7,2.79c.12.83.24,2.51,1.35,2.62a1.23,1.23,0,0,0,1.2-1,2.49,2.49,0,0,0,0-1c0-.23-.08-.45-.13-.67-.28-1.22-.62-2.43-1-3.63"/><path class="cls-1" d="M22.79,23.56a8.51,8.51,0,0,1-.49,4.23A2.92,2.92,0,0,0,22,29,1.13,1.13,0,0,0,22.75,30a1.24,1.24,0,0,0,1.13-.35,3.29,3.29,0,0,0,.9-1.38,10.18,10.18,0,0,0,.55-2.74c.05-.63.09-1.26.1-1.9Z"/><path class="cls-2" d="M24.78,28.31a3.29,3.29,0,0,1-.9,1.38,1.24,1.24,0,0,1-1.13.35A1.13,1.13,0,0,1,22,29a2.92,2.92,0,0,1,.31-1.19,4.11,4.11,0,0,0,2.47.52Z"/><path class="cls-3" d="M22.79,23.56a8.51,8.51,0,0,1-.49,4.23A2.92,2.92,0,0,0,22,29,1.13,1.13,0,0,0,22.75,30a1.24,1.24,0,0,0,1.13-.35,3.29,3.29,0,0,0,.9-1.38,10.18,10.18,0,0,0,.55-2.74c.05-.63.09-1.26.1-1.9"/><path d="M7.75,5.73l-.17.51a.31.31,0,0,0,.36.39l.52-.11A.3.3,0,0,0,8.62,6l-.36-.4a.3.3,0,0,0-.51.11l-.17.51a.31.31,0,0,0,.36.39l.52-.11A.3.3,0,0,0,8.62,6l-.36-.4A.3.3,0,0,0,7.75,5.73Z"/><path class="cls-3" d="M6.79,7.28a.87.87,0,0,0,1,.68.91.91,0,0,0,.62-.49.89.89,0,0,0,1.45-.86h0"/><path class="cls-3" d="M6.27,6.37A1,1,0,0,0,5.21,6a1,1,0,0,0-.8.8"/><path class="cls-3" d="M12.25,5.09a1.07,1.07,0,0,0-1.87.43"/><line class="cls-3" x1="3.92" y1="8.44" x2="2.09" y2="8.42"/><line class="cls-3" x1="4.39" y1="9.96" x2="2.9" y2="11.01"/><line class="cls-3" x1="4.05" y1="9.21" x2="2.44" y2="9.71"/><line class="cls-3" x1="13.56" y1="6.2" x2="15.22" y2="5.44"/><line class="cls-3" x1="13.75" y1="7.77" x2="15.54" y2="8.13"/><line class="cls-3" x1="13.75" y1="6.95" x2="15.42" y2="6.75"/><path class="cls-2" d="M4.92,7.09c0,.13-.23.29-.57.36s-.63,0-.66-.1.23-.29.57-.36S4.89,7,4.92,7.09Z"/><path class="cls-2" d="M13,5.43c0,.12-.23.29-.57.36s-.63,0-.66-.11.23-.29.57-.36S13,5.3,13,5.43Z"/></g></g></svg>