<svg xmlns="http://www.w3.org/2000/svg" viewBox="0 0 28.09 33.74"><defs><style>.cls-1{fill:#ffc164;}.cls-2{fill:none;stroke:#000;stroke-miterlimit:10;stroke-width:0.3px;}.cls-3{fill:#ffe0b1;}.cls-4{fill:#a05815;}.cls-5{fill:#a13922;}</style></defs><g id="Layer_2" data-name="Layer 2"><g id="Layer_2-2" data-name="Layer 2"><path class="cls-1" d="M25.52,18.14a31.83,31.83,0,0,0,0-10.88c-1.09-5.19-1.92-6.64,0-7.1s4,14.21.6,23.77Z"/><path class="cls-2" d="M25.52,18.14a31.83,31.83,0,0,0,0-10.88c-1.09-5.19-1.92-6.64,0-7.1s4,14.21.6,23.77"/><path class="cls-1" d="M23.52,11.45a27.84,27.84,0,0,0-.73-5.22s-.85-.85-4,4.13h-.72a30.56,30.56,0,0,0-10.57,0c-3.15-5-4-4.13-4-4.13a27.84,27.84,0,0,0-.73,5.22,41,41,0,0,0-2,6.88,8.68,8.68,0,0,0,2.86.48A12.46,12.46,0,0,0,8,18.19a32.51,32.51,0,0,0,3.86-2.14,6.23,6.23,0,0,0,5.56.87c-.15.75.63,1.35,1.35,1.62a8.19,8.19,0,0,0,6.74-.64A41.88,41.88,0,0,0,23.52,11.45Z"/><path class="cls-3" d="M19.78,16.87c0,.17-.37.31-.82.31s-.83-.14-.83-.31.37-.32.83-.32S19.78,16.69,19.78,16.87Z"/><path class="cls-3" d="M7.3,16.75c0,.17-.37.31-.83.31s-.82-.14-.82-.31.37-.32.82-.32S7.3,16.57,7.3,16.75Z"/><line class="cls-2" x1="20.02" y1="18.53" x2="23.49" y2="17.82"/><line class="cls-2" x1="20.18" y1="19.63" x2="23.64" y2="19.63"/><line class="cls-2" x1="20.18" y1="20.73" x2="23.41" y2="21.76"/><line class="cls-2" x1="7.45" y1="18.53" x2="3.98" y2="17.82"/><line class="cls-2" x1="7.29" y1="19.63" x2="3.82" y2="19.63"/><line class="cls-2" x1="7.29" y1="20.73" x2="4.06" y2="21.76"/><path class="cls-4" d="M20,10.68s1.68-3.14,2.14-2.87.27,3.46.27,3.46Z"/><path class="cls-4" d="M6.44,10.68S4.75,7.54,4.3,7.81,4,11.27,4,11.27Z"/><path class="cls-1" d="M17.27,29.48l.36,3.77a4.45,4.45,0,0,1-2-.38A1.84,1.84,0,0,1,14.78,31a2.12,2.12,0,0,1,1.51-1.32A5.41,5.41,0,0,1,17.27,29.48Z"/><path class="cls-2" d="M22.46,26.78a6.34,6.34,0,0,1-4.1,2.56c-.35.06-.73.09-1.09.14a5.41,5.41,0,0,0-1,.16A2.12,2.12,0,0,0,14.78,31a1.84,1.84,0,0,0,.86,1.91,4.45,4.45,0,0,0,2,.38,11.32,11.32,0,0,0,1.15,0"/><path class="cls-1" d="M10.62,30.13a2.08,2.08,0,0,1,.85,2.29,2,2,0,0,1-1.59,1.14,2.86,2.86,0,0,1-.42,0q-.56,0-1.08-.12v-.08l.75-3.86A4.22,4.22,0,0,1,10.62,30.13Z"/><path class="cls-5" d="M9.88,33.56a1,1,0,0,1-.42,0A2.86,2.86,0,0,0,9.88,33.56Z"/><path class="cls-2" d="M3.85,26.39a2,2,0,0,0,.92,1.88,5.77,5.77,0,0,0,2.07.7l1.33.27c.33.07.65.14,1,.23a4.22,4.22,0,0,1,1.48.66,2.08,2.08,0,0,1,.85,2.29,2,2,0,0,1-1.59,1.14,1,1,0,0,1-.42,0,.37.37,0,0,1-.14,0"/><path class="cls-2" d="M13.57,33.42a16.65,16.65,0,0,0,8.62-1.2c8-4.75,1.33-20.77,1.33-20.77a27.69,27.69,0,0,0-.73-5.22s-.85-.85-4,4.13h-.72c-4.74-1.1-10.57,0-10.57,0-3.15-5-4-4.13-4-4.13a28,28,0,0,0-.72,5.22s-6.68,16,1.33,20.77a19,19,0,0,0,4.29,1.19q.53.08,1.08.12a2.86,2.86,0,0,0,.42,0,11.77,11.77,0,0,0,2.83-.14Z"/><path d="M12.07,15.18l-.35.61a.39.39,0,0,0,.34.59h.7a.39.39,0,0,0,.34-.59l-.35-.61a.39.39,0,0,0-.68,0l-.35.61a.39.39,0,0,0,.34.59h.7a.39.39,0,0,0,.34-.59l-.35-.61A.39.39,0,0,0,12.07,15.18Z"/><path class="cls-2" d="M10.43,16.89a1.15,1.15,0,0,0,1.15,1.16,1.17,1.17,0,0,0,.92-.46,1.17,1.17,0,0,0,.92.46,1.15,1.15,0,0,0,1.15-1.16v0"/><path class="cls-2" d="M10,15.59a1.28,1.28,0,0,0-1.25-.76,1.29,1.29,0,0,0-1.24.79"/><path class="cls-2" d="M18,15.59a1.39,1.39,0,0,0-2.49,0"/></g></g></svg>