<svg xmlns="http://www.w3.org/2000/svg" viewBox="0 0 31.1 43.54"><defs><style>.cls-1{fill:#edc1a4;}.cls-2{fill:#b28f73;}.cls-3{fill:none;stroke:#000;stroke-miterlimit:10;stroke-width:0.3px;}</style></defs><g id="Layer_2" data-name="Layer 2"><g id="Layer_2-2" data-name="Layer 2"><path class="cls-1" d="M24.75,35.32A28.21,28.21,0,0,0,25.55,23c-1-7.09-1.3-18.91,3.51-19.21,0,0,2.14-.43,1.87,2.37s-3.61-.67-3.74,5.75,3.19,23.84-4.55,27.62Z"/><path class="cls-2" d="M25.8,13.24a.5.5,0,0,0,.06.56,1.62,1.62,0,0,0,1.27.48h.11c0-.44,0-.86,0-1.25a5.15,5.15,0,0,1-.68,0C26.26,13,25.94,13,25.8,13.24Z"/><path class="cls-2" d="M26.32,15.46a.47.47,0,0,0,.05.6,1.32,1.32,0,0,0,.57.31c.14,0,.29.06.44.09,0-.36-.05-.7-.07-1L27,15.36C26.76,15.32,26.48,15.28,26.32,15.46Z"/><path class="cls-2" d="M26.23,18.55a.39.39,0,0,0,.13.27,2.67,2.67,0,0,0,1.22.75c0-.41,0-.81-.08-1.21l-.7-.06C26.57,18.27,26.24,18.31,26.23,18.55Z"/><path class="cls-3" d="M24.62,35.47A27.89,27.89,0,0,0,25.55,23c-1-7.09-1.3-18.91,3.51-19.21,0,0,2.14-.43,1.87,2.37s-3.61-.67-3.74,5.75,3.19,23.84-4.55,27.62"/><path class="cls-1" d="M20.4,5c.91,3.51.64,13.35.43,13.77C20.72,19,22.65,25.8,24.44,32a7.88,7.88,0,0,1-7.57,10.06H10.2a7.88,7.88,0,0,1-7.58-10c.53-1.87,1.06-3.7,1.52-5.19,1.66-5.34,0-7.74,0-7.74A10,10,0,0,1,7.24,3.05L8.89.31l1.47,2.95s5-.52,7.15.46l2.8-2.21Z"/><polygon points="18.44 4.12 19.64 2.92 19.64 4.72 18.44 4.12"/><polygon points="8.68 1.72 9.15 3.45 7.95 3.45 8.68 1.72"/><path d="M11.5,7c0,.22-.73.28-.73.28s-.62-.29-.58-.5.36-.35.72-.29S11.53,6.77,11.5,7Z"/><path class="cls-3" d="M8.89,7.36c0,.67.3,1.22.77,1.31a.89.89,0,0,0,.79-.29.93.93,0,0,0,.63.58c.47.09.95-.3,1.21-.92"/><path class="cls-3" d="M13.17,6.17a1.34,1.34,0,0,0,2.39.23"/><path class="cls-3" d="M6.9,5.29A1.27,1.27,0,0,0,8,6.16a1.26,1.26,0,0,0,1.27-.64"/><path class="cls-2" d="M16.22,11.62c0,.35.42.53.76.6a9.87,9.87,0,0,0,2.3.23A5.1,5.1,0,0,0,21,12.14c0-.65,0-1.32-.05-2-1.32.26-2.66.55-3.95.81C16.65,11.06,16.21,11.25,16.22,11.62Z"/><path class="cls-2" d="M16.38,15.21a.63.63,0,0,0-.19.75.86.86,0,0,0,.66.35,8,8,0,0,0,2.44.09A4.91,4.91,0,0,0,21,15.88c0-.57,0-1.2,0-1.86a37.54,37.54,0,0,1-3.89.88A1.63,1.63,0,0,0,16.38,15.21Z"/><path class="cls-2" d="M17.11,19.2c.06.24.31.38.54.48a5.38,5.38,0,0,0,3.22.29l.2,0a7,7,0,0,1-.24-1.2,3.81,3.81,0,0,0,.09-.72c-1,.17-2,.13-3,.39C17.49,18.49,17,18.79,17.11,19.2Z"/><path class="cls-2" d="M19.09,25.35a.78.78,0,0,0-.56.63c0,.46.5.75,1,.87a7.28,7.28,0,0,0,2.79.18,4,4,0,0,0,.69-.15c-.17-.61-.34-1.2-.5-1.78-1,0-2.21.2-2.5.19A2.58,2.58,0,0,0,19.09,25.35Z"/><path class="cls-2" d="M19,28.93c-.22.05-.49.17-.47.4s.18.25.33.31a8.12,8.12,0,0,0,3.14.45,3.21,3.21,0,0,0,1.78-.35c-.17-.58-.33-1.16-.49-1.73a5,5,0,0,1-.56.22C21.53,28.6,20.25,28.66,19,28.93Z"/><path class="cls-2" d="M20.53,32.25c-.32.07-.72.24-.7.57s.43.48.76.51a11.06,11.06,0,0,0,2.3,0,3.07,3.07,0,0,0,1.72-.59c-.05-.25-.1-.5-.17-.75s-.12-.43-.19-.64a1.47,1.47,0,0,1-.28.12A28.49,28.49,0,0,1,20.53,32.25Z"/><path class="cls-2" d="M10.45,4.81a.31.31,0,0,0,.25.06,1.84,1.84,0,0,0,1.18-.93c.09-.15.3-.47.46-.8-.61,0-1.15,0-1.5.08a2.32,2.32,0,0,0-.46,1.36A.32.32,0,0,0,10.45,4.81Z"/><path class="cls-2" d="M12.55,4.91a.65.65,0,0,0,.34-.21,3.6,3.6,0,0,0,1-1.57h-1c-.23.53-.4,1.15-.64,1.63A.29.29,0,0,0,12.55,4.91Z"/><path class="cls-2" d="M14.11,4.73a.29.29,0,0,0,.27.25.67.67,0,0,0,.38-.11A3.56,3.56,0,0,0,16,3.54.92.92,0,0,0,16,3.31c-.39-.06-.8-.11-1.22-.14-.23.46-.42,1-.61,1.3A.44.44,0,0,0,14.11,4.73Z"/><path class="cls-3" d="M20.4,5c.91,3.51.64,13.35.43,13.77C20.72,19,22.65,25.8,24.44,32a7.88,7.88,0,0,1-7.57,10.06H10.2a7.88,7.88,0,0,1-7.58-10c.53-1.87,1.06-3.7,1.52-5.19,1.66-5.34,0-7.74,0-7.74A10,10,0,0,1,7.24,3.05L8.89.31l1.47,2.95s5-.52,7.15.46l2.8-2.21Z"/><path class="cls-1" d="M3.62,35.79a16,16,0,0,0-1.08,3.74c-.13,1.08,0,2.06.77,2.37s1.46-.41,2-1.4a18.65,18.65,0,0,0,1.4-3.91Z"/><path class="cls-2" d="M5.32,40.5c-.55,1-1.24,1.71-2,1.4s-.9-1.29-.77-2.37A12.22,12.22,0,0,0,5.32,40.5Z"/><path class="cls-3" d="M3.62,35.79a16,16,0,0,0-1.08,3.74c-.13,1.08,0,2.06.77,2.37s1.46-.41,2-1.4a18.65,18.65,0,0,0,1.4-3.91"/><path class="cls-2" d="M16.31,8c0,.24-.41.43-.9.43S14.5,8.24,14.5,8s.41-.44.91-.44S16.31,7.76,16.31,8Z"/><path class="cls-2" d="M7.16,7.19c0,.24-.41.44-.91.44s-.9-.2-.9-.44.41-.43.9-.43S7.16,7,7.16,7.19Z"/><line class="cls-3" x1="18.16" y1="6.19" x2="22.15" y2="5.38"/><line class="cls-3" x1="18.34" y1="7.46" x2="22.33" y2="7.46"/><line class="cls-3" x1="18.34" y1="8.73" x2="22.06" y2="9.91"/><line class="cls-3" x1="4.17" y1="5.99" x2="0.18" y2="5.18"/><line class="cls-3" x1="3.99" y1="7.26" y2="7.26"/><line class="cls-3" x1="3.99" y1="8.53" x2="0.27" y2="9.71"/><path class="cls-2" d="M7.29,41.27a11.31,11.31,0,0,0,3,.59l0,0c-.56.88-1.24,1.55-2,1.51S7.24,42.42,7.29,41.27Z"/><path class="cls-3" d="M8.18,36.78a20.47,20.47,0,0,0-.89,4.49c0,1.15.17,2.09,1,2.12s1.46-.63,2-1.51A16.6,16.6,0,0,0,11.89,38"/></g></g></svg>