<svg xmlns="http://www.w3.org/2000/svg" viewBox="0 0 28.93 39.97"><defs><style>.cls-1{fill:#ffc164;}.cls-2{fill:none;stroke:#000;stroke-miterlimit:10;stroke-width:0.3px;}.cls-3{fill:#b28f73;}.cls-4{fill:#ffd597;}</style></defs><g id="Layer_2" data-name="Layer 2"><g id="Layer_2-2" data-name="Layer 2"><path class="cls-1" d="M5.42,31.64c-3.62-11-.56-27.11-.56-27.11s0-3.91.77-4.34S9.24,3.36,9.24,3.36a48.71,48.71,0,0,1,10.61-.64S21.71.11,23.24.15s1,4.27,1,4.27,2.39,15,1,25.66A8.29,8.29,0,0,1,17,37.32H13.29A8.28,8.28,0,0,1,5.42,31.64Z"/><polygon points="6.04 4.13 6.04 1.83 7.76 3.36 6.04 4.13"/><polygon points="23.2 3.64 23.2 1.34 21.48 2.87 23.2 3.64"/><path class="cls-2" d="M7.72,9.32a1.71,1.71,0,0,1,3.31,0"/><path d="M15.93,8.63c0,.38-1.12.71-1.12.71s-1.15-.27-1.16-.65S14.14,8,14.77,8,15.92,8.25,15.93,8.63Z"/><path class="cls-2" d="M13.36,10.33c.17.83.63,1.42,1.15,1.4a1,1,0,0,0,.76-.58,1,1,0,0,0,.81.53c.52,0,.93-.65,1-1.49"/><path class="cls-3" d="M6.41,22.88l1.75-1.56.55-.49a2,2,0,1,0-2.65-3l-.88.78-.88-.78a2,2,0,0,0-.64-.38c0,1.71,0,3.48.14,5.26l.15.13A1.86,1.86,0,0,0,6.41,22.88Z"/><path class="cls-3" d="M22,23.66a2,2,0,0,0,.16,2.8l.54.49,1.75,1.56a1.89,1.89,0,0,0,.95.44c.15-1.51.23-3.09.27-4.68l-.86-.77A2,2,0,0,0,22,23.66Z"/><path class="cls-3" d="M14.17,3.43l1.29,1.14a1.34,1.34,0,0,0,1.81,0l1.29-1.14.4-.36a1.24,1.24,0,0,0,.3-.39,40,40,0,0,0-5.71.13,1.88,1.88,0,0,0,.22.26Z"/><path class="cls-3" d="M21.81,6.06l-.87.78-.86-.78A2,2,0,0,0,17.47,9l.54.47L19.73,11a1.82,1.82,0,0,0,2.43,0l1.72-1.54L24.41,9a1.93,1.93,0,0,0,.36-.45c-.11-.94-.21-1.75-.3-2.4A2,2,0,0,0,21.81,6.06Z"/><path class="cls-2" d="M5.42,31.64c-3.62-11-.56-27.11-.56-27.11s0-3.91.77-4.34S9.24,3.36,9.24,3.36a48.71,48.71,0,0,1,10.61-.64S21.71.11,23.24.15s1,4.27,1,4.27,2.39,15,1,25.66A8.29,8.29,0,0,1,17,37.32H13.29A8.28,8.28,0,0,1,5.42,31.64Z"/><path class="cls-1" d="M16.83,36.21l2.91.6c-.6,1.41-1.41,2.8-2.21,3S16.6,38.14,16.83,36.21Z"/><path class="cls-1" d="M15.28,36.25c-.18,1.78-.5,3.39-1,3.29s-1.3-1.58-2-3.14l2.9-.16Z"/><path class="cls-2" d="M10.94,32.65s.61,1.93,1.34,3.75c.65,1.56,1.39,3,2,3.14s.87-1.51,1-3.29c.23-2.07.26-4.37.26-4.37"/><path class="cls-2" d="M17.53,32.26s-.47,2-.7,4-.23,3.81.7,3.59,1.57-1.47,2.17-2.89A30.24,30.24,0,0,0,21,33"/><path class="cls-2" d="M19.29,9.32a1.71,1.71,0,0,1,3.31,0"/><path class="cls-4" d="M9.27,10.47c0,.15-.43.26-1,.26s-1-.11-1-.26.43-.25,1-.25S9.27,10.33,9.27,10.47Z"/><path class="cls-4" d="M23.49,10.14c0,.13-.38.23-.84.23s-.84-.1-.84-.23.38-.22.84-.22S23.49,10,23.49,10.14Z"/><line class="cls-2" x1="24.66" y1="8.11" x2="28.74" y2="7.28"/><line class="cls-2" x1="24.85" y1="9.41" x2="28.93" y2="9.41"/><line class="cls-2" x1="24.9" y1="10.71" x2="28.7" y2="11.91"/><line class="cls-2" x1="4.27" y1="8.28" x2="0.19" y2="7.44"/><line class="cls-2" x1="4.08" y1="9.57" y2="9.57"/><line class="cls-2" x1="4.08" y1="10.87" x2="0.28" y2="12.08"/></g></g></svg>