<svg xmlns="http://www.w3.org/2000/svg" viewBox="0 0 26.7 40.19"><defs><style>.cls-1{fill:#f6af55;}.cls-2,.cls-3{fill:#fff;}.cls-2,.cls-5{stroke:#000;stroke-miterlimit:10;stroke-width:0.3px;}.cls-4{fill:#999;}.cls-5{fill:none;}</style></defs><g id="Layer_2" data-name="Layer 2"><g id="Layer_2-2" data-name="Layer 2"><path class="cls-1" d="M13,39.48c-5-.89-8.55-3-10.68-6.17-4.33-6.52-1-15.22-.84-15.59a1,1,0,0,1,1.83.73c0,.08-3.1,8.12.66,13.78,2.44,3.66,7.25,5.61,14.3,5.78a1,1,0,0,1,1,1,1,1,0,0,1-1,1A33.27,33.27,0,0,1,13,39.48Z"/><path class="cls-2" d="M13,39.48c-5-.89-8.55-3-10.68-6.17-4.33-6.52-1-15.22-.84-15.59a1,1,0,0,1,1.83.73c0,.08-3.1,8.12.66,13.78,2.44,3.66,7.25,5.61,14.3,5.78a1,1,0,0,1,1,1,1,1,0,0,1-1,1A33.27,33.27,0,0,1,13,39.48Z"/><path class="cls-3" d="M8.44,18.47c.25-.82.89-3.06.43-4.1s-1-1.8-1.41-2.74A5.91,5.91,0,0,1,7,10c-.08-.64.25-1.22.19-1.83a2.42,2.42,0,0,0-.35-1.07,2.93,2.93,0,0,0-.28-.36c-.28-.3-.55-.61-.8-.93-.4-.5-1.21-1.42-1-2.13a.55.55,0,0,1,.17-.27c.94-.77,3.59,0,3.59,0S9.9-.17,14.74.17s5.88,2,6.83,4c0,0,3.16-1.29,4-.74s-3,4.9-3.08,6.07c-.06.89-.35,1.74-.34,2.63a4.2,4.2,0,0,0,.77,2.35,17.72,17.72,0,0,1,2.25,5.26c.22.8.42,1.59.59,2.35.09.35.17.72.25,1.08a32.58,32.58,0,0,1,.48,3.29,18.93,18.93,0,0,1,0,3,14.19,14.19,0,0,1-.75,3.89c-.11.31-.22.61-.35.91a11.2,11.2,0,0,1-1.6,2.61A8.92,8.92,0,0,1,21.3,39a8.17,8.17,0,0,1-3,1,8.44,8.44,0,0,1-2.07,0,10.71,10.71,0,0,1-6.6-3.17,8.92,8.92,0,0,1-1.17-1.54,10.86,10.86,0,0,1-.85-1.75,15.26,15.26,0,0,1-.91-4.16s0-.25,0-.67a27.17,27.17,0,0,1,.07-3.48,21.85,21.85,0,0,1,.46-3.14,14.23,14.23,0,0,1,1.16-3.28S8.38,18.67,8.44,18.47Z"/><path class="cls-4" d="M20.37,32a7.4,7.4,0,0,0,5.38,1.36h0c-.11.31-.22.61-.35.91a11.2,11.2,0,0,1-1.6,2.61c-1.06-.43-1.41-1.33-2.28-2.06-.46-.39-1-.7-1.41-1.1a2.14,2.14,0,0,1-.78-1.56.6.6,0,0,1,.05-.26C19.58,31.61,20.07,31.81,20.37,32Z"/><path class="cls-4" d="M20.08,26.41c1.07.18,2.13.46,3.21.56a5.64,5.64,0,0,0,3.17-.49h0a18.93,18.93,0,0,1,0,3h-.09a.08.08,0,0,1,0,0c0,.06-.14.06-.21,0C24,29.35,22,28.13,20.05,26.94c-.18-.13-.37-.41-.19-.52A.28.28,0,0,1,20.08,26.41Z"/><path class="cls-4" d="M26,23.19a17.5,17.5,0,0,1-5.11,0,1.57,1.57,0,0,1-.69-.23.55.55,0,0,1-.21-.65.68.68,0,0,1,.4-.3c.7-.25,1.5-.08,2.22-.26a5,5,0,0,0,2.52-2h0c.22.8.42,1.59.59,2.35C25.83,22.46,25.91,22.83,26,23.19Z"/><path class="cls-4" d="M11.32,31.87c.53-.5,1.1-1.14,1.81-1a12,12,0,0,1-3.47,5.92l0,0a8.92,8.92,0,0,1-1.17-1.54,10.86,10.86,0,0,1-.85-1.75A6.18,6.18,0,0,0,11.32,31.87Z"/><path class="cls-4" d="M13.81,25.86c.3.08.23.53,0,.78a4.57,4.57,0,0,1-3,1.34l-4.18.7a27.17,27.17,0,0,1,.07-3.48c2.24-.46,4.58,1.54,6.72.73A.55.55,0,0,1,13.81,25.86Z"/><path class="cls-4" d="M12.79,21.87c-1.86-.32-3.84.83-5.61.19a14.23,14.23,0,0,1,1.16-3.28s0-.11.1-.31h0a2,2,0,0,0,1.35,1.27,9.68,9.68,0,0,0,1.85.4,9,9,0,0,1,2.18.71.77.77,0,0,1,.43.36c.13.31-.17.66-.49.73A2.57,2.57,0,0,1,12.79,21.87Z"/><path class="cls-5" d="M8.44,18.47c.25-.82.89-3.06.43-4.1s-1-1.8-1.41-2.74A5.91,5.91,0,0,1,7,10c-.08-.64.25-1.22.19-1.83a2.42,2.42,0,0,0-.35-1.07,2.93,2.93,0,0,0-.28-.36c-.28-.3-.55-.61-.8-.93-.4-.5-1.21-1.42-1-2.13a.55.55,0,0,1,.17-.27c.94-.77,3.59,0,3.59,0S9.9-.17,14.74.17s5.88,2,6.83,4c0,0,3.16-1.29,4-.74s-3,4.9-3.08,6.07c-.06.89-.35,1.74-.34,2.63a4.2,4.2,0,0,0,.77,2.35,17.72,17.72,0,0,1,2.25,5.26c.22.8.42,1.59.59,2.35.09.35.17.72.25,1.08a32.58,32.58,0,0,1,.48,3.29,18.93,18.93,0,0,1,0,3,14.19,14.19,0,0,1-.75,3.89c-.11.31-.22.61-.35.91a11.2,11.2,0,0,1-1.6,2.61A8.92,8.92,0,0,1,21.3,39a8.17,8.17,0,0,1-3,1,8.44,8.44,0,0,1-2.07,0,10.71,10.71,0,0,1-6.6-3.17,8.92,8.92,0,0,1-1.17-1.54,10.86,10.86,0,0,1-.85-1.75,15.26,15.26,0,0,1-.91-4.16s0-.25,0-.67a27.17,27.17,0,0,1,.07-3.48,21.85,21.85,0,0,1,.46-3.14,14.23,14.23,0,0,1,1.16-3.28S8.38,18.67,8.44,18.47Z"/></g></g></svg>