<svg xmlns="http://www.w3.org/2000/svg" viewBox="0 0 31.74 39.66"><defs><style>.cls-1{fill:#feaebb;}.cls-2,.cls-5{fill:none;stroke-miterlimit:10;stroke-width:0.3px;}.cls-2{stroke:#fff;}.cls-3{fill:#f1c3c6;}.cls-4{fill:#fff;}.cls-5{stroke:#000;}</style></defs><g id="Layer_2" data-name="Layer 2"><g id="Layer_2-2" data-name="Layer 2"><path d="M31.16,28.59c2,10.14-3.49,10.68-3.49,10.68s-2.18.54-11.66,0-6-8.5-4.25-12.86,1.09-6.21,1.09-6.21c-7.84-2.51-6-12.31-6-12.31s-.76-3.82,0-4,2.4.55,3.38,1.42a59.32,59.32,0,0,1,8.17-2.61S19.72.15,20.7.15,22,4.07,22,4.07,29.74,21.29,31.16,28.59Z"/><path d="M15.58,39.27H3.05S-.66,38.83.1,35.13c0,0,1.31-2.4,2.07-.44s.88,2.29,3.16,2.4,5,0,5,0Z"/><path class="cls-1" d="M19.5,2.66h0c0-.13.64-2.06,1.16-1.88s.44,2.47.44,2.47Z"/><path class="cls-1" d="M7.62,7.16S6.9,4.47,7.4,4.36,9.47,5.93,9.47,5.93L7.77,7.12"/><path class="cls-2" d="M16.4,8.39a1.08,1.08,0,0,0,1.19.55,1,1,0,0,0,.7-1.09"/><path class="cls-2" d="M11.4,10.26a1.09,1.09,0,0,0,1.25.39,1.08,1.08,0,0,0,.55-1.19"/><path class="cls-2" d="M14.72,11.54a1,1,0,0,0,1,.42.86.86,0,0,0,.49-.34.91.91,0,0,0,.61.05,1,1,0,0,0,.68-.89"/><path class="cls-3" d="M16.15,9.61c0,.18-.48.44-.48.44s-.58,0-.62-.21.18-.38.48-.45S16.11,9.42,16.15,9.61Z"/><path class="cls-4" d="M11.94,33.61a9.94,9.94,0,0,0,3.44-1.83,8.94,8.94,0,0,0,2.8-3.13,6.09,6.09,0,0,0-.94-6.43A6.24,6.24,0,0,0,12.31,20c.19.07.35.16.54.22,0,0,.66,1.85-1.09,6.21-.8,2-2,4.81-2.08,7.27A5.22,5.22,0,0,0,11.94,33.61Z"/><path class="cls-5" d="M31.16,28.59c2,10.14-3.49,10.68-3.49,10.68s-2.18.54-11.66,0-6-8.5-4.25-12.86,1.09-6.21,1.09-6.21c-7.84-2.51-6-12.31-6-12.31s-.76-3.82,0-4,2.4.55,3.38,1.42a59.32,59.32,0,0,1,8.17-2.61S19.72.15,20.7.15,22,4.07,22,4.07,29.74,21.29,31.16,28.59Z"/><line class="cls-2" x1="20.25" y1="9.34" x2="22.02" y2="7.91"/><line class="cls-2" x1="20.96" y1="11.2" x2="23.24" y2="11.07"/><line class="cls-2" x1="20.71" y1="10.19" x2="22.68" y2="9.44"/><line class="cls-2" x1="11.17" y1="12.57" x2="8.89" y2="12.53"/><line class="cls-2" x1="11.75" y1="14.46" x2="9.88" y2="15.77"/><line class="cls-2" x1="11.33" y1="13.52" x2="9.31" y2="14.14"/></g></g></svg>