<svg xmlns="http://www.w3.org/2000/svg" viewBox="0 0 28.61 36.29"><defs><style>.cls-1{fill:#ffca3e;}.cls-2{fill:none;stroke:#000;stroke-miterlimit:10;stroke-width:0.3px;}.cls-3{fill:#8a6c16;}.cls-4{fill:#876816;}.cls-5{fill:#ffdaa2;}</style></defs><g id="Layer_2" data-name="Layer 2"><g id="Layer_2-2" data-name="Layer 2"><path class="cls-1" d="M24.73,24.53a32,32,0,0,0,1.5-10.78c-.37-5.29-1-6.85,1-7s2,14.62-2.67,23.62Z"/><path class="cls-2" d="M24.73,24.53a32,32,0,0,0,1.5-10.78c-.37-5.29-1-6.85,1-7s2,14.62-2.67,23.62"/><path class="cls-1" d="M20,33.18c12.59-.91,5.37-17.53,3.76-21.77S23,4.52,23,4.52s1-4.19.17-4.36-3.4,2.7-3.4,2.7-1.92,0-4.45,0H12.05c-2.53,0-4.45,0-4.45,0S5,0,4.19.16s.18,4.36.18,4.36,1,2.53-.7,6.89S-5.58,33.22,8.56,33.22Z"/><path class="cls-3" d="M5.33,4.17s-1-2.53-.53-2.7S6.64,3.39,6.64,3.39Z"/><path class="cls-3" d="M22.17,4.17s1-2.53.52-2.7-1.83,1.92-1.83,1.92Z"/><path class="cls-4" d="M24.34,12.9c-.29-.13-.44,0-.68-.22,0,.21-.07.47,0,.68-.1-.15-.44-.33-.54-.45,0,.12-.11.35-.13.45s-.18-.19-.32-.21-.09.27-.18.32-.23-.17-.41-.2l0,.2c-.17,0-.29-.08-.42-.09s-.09.3-.17.44a3.12,3.12,0,0,0-.44-.09c-.28.42-.38.45-.79.35-.09.06-.09.25-.17.32s-.19-.18-.32-.23a3.18,3.18,0,0,1-.26.35s-.28,0-.21-.06-.17.26-.2.29a1,1,0,0,1-.23-.33,2.5,2.5,0,0,0-.24.45c0-.08,0-.26-.11-.31a5.86,5.86,0,0,0,0,1.11c0-.13,0-.26,0-.39a13.66,13.66,0,0,0,.24,1.56,5.69,5.69,0,0,0,.12-1,1.62,1.62,0,0,0,.32.78c0-.18.11-.37.14-.55a2.85,2.85,0,0,0,.34,1.19c0-.31,0-.64,0-1a6.7,6.7,0,0,0,.24.76c0-.24.09-.42.11-.65a9.46,9.46,0,0,0,.57,1.15,3.51,3.51,0,0,0-.11-1.37,3.59,3.59,0,0,0,.8,1.48,2.58,2.58,0,0,0,.16-1.17c.14.29.3.8.45,1.16a9,9,0,0,1,0-1.27c.06.21.33.6.41.86,0-.09.35-.51.37-.6.1.19.26.32.36.48a2,2,0,0,0,.44-1c0,.2,0,.44.05.65a5.55,5.55,0,0,0,.32-.57,3.93,3.93,0,0,0,.2.58c.12-.1.26-.26.36-.34.11.17.1.21.25.33.09-.19.28-.34.37-.56a3.23,3.23,0,0,1,0,.44C26.58,16.45,23.89,13.69,24.34,12.9Z"/><path class="cls-4" d="M19.87,19.41l.14.32.32-.43.16.23.41-.39,0,.33a.4.4,0,0,0,.42-.33,2.83,2.83,0,0,0,.11.31.33.33,0,0,0,.25-.3.5.5,0,0,0,.26.42,1.5,1.5,0,0,1,.36-.75.68.68,0,0,0,.25.41l.3-.45a.41.41,0,0,0,.28.43l.38-.86a1.51,1.51,0,0,0,.15.59l.17-.65c.07.25.14.51.2.76a5.93,5.93,0,0,0,.44-1.15,8.62,8.62,0,0,0,.25,1.42,2.46,2.46,0,0,0,.35-1.4l.42,1.39,0-1.56c.16-.16.39.11.46.34a39.17,39.17,0,0,1,1.11,5.05c-.31-.36-.63-.71-.94-1.06a1.31,1.31,0,0,1,0,.68l-.4-1V23a4.51,4.51,0,0,0-.38-.94,4.35,4.35,0,0,0-.13,1c-.19-.4-.37-.8-.55-1.2a2.54,2.54,0,0,0-.06,1L24,21.79l-.13,1.32L23.21,22l-.16,1.14a6.15,6.15,0,0,1-.5-1.29,1.51,1.51,0,0,0-.17.91l-.51-1.06a3.46,3.46,0,0,0-.16,1.35l-.54-1.48c-.09.48-.17.95-.26,1.42a4.59,4.59,0,0,1-.49-1.19l-.18,1.32c-.13-.46-.27-.93-.4-1.4a3,3,0,0,0-.17,1.07l-.39-1.33L19,22.54a3,3,0,0,1-.45-1l-.2,1.07a3.18,3.18,0,0,1-.25-1.26.94.94,0,0,0-.24.7,7.94,7.94,0,0,1,.05-2.23c.58.29.79-.73,1.28.15.3-.39.09-.32.47-.22C19.71,19.72,19.89,19.46,19.87,19.41Z"/><path class="cls-2" d="M11.65,8.91a1.12,1.12,0,0,0,2,.68,1.09,1.09,0,0,0,.89.44,1.12,1.12,0,0,0,1.12-1.12v0"/><path class="cls-2" d="M11.26,7.66a1.34,1.34,0,0,0-2.42,0"/><path class="cls-2" d="M19,7.66a1.28,1.28,0,0,0-1.22-.75,1.25,1.25,0,0,0-1.19.78"/><path class="cls-4" d="M22.27,9.07a6.71,6.71,0,0,0,.31,1.19,2.48,2.48,0,0,1-.51-.8,1.85,1.85,0,0,0,.05.81l-.45-.63c0,.2,0,.39,0,.59l-.56-.49a2.18,2.18,0,0,0-.07.76,2.24,2.24,0,0,1-.47-.45l-.09,1-.36-.61a2.77,2.77,0,0,0-.08.76,2.48,2.48,0,0,1-.44-.53,2,2,0,0,1-.08.64l-.3-.33-.06.68a1.41,1.41,0,0,1-.44-.47,1.57,1.57,0,0,1,0,.53c-.11-.13-.21-.27-.31-.4l.06.63-.17-.33a1.28,1.28,0,0,0,.06.61,1.16,1.16,0,0,0-.26-.39,1.36,1.36,0,0,0,0,.49c0,.07,0,.15.11.16s.06-.14,0-.11l.23.63,0-.52.21.4c0-.14.06-.27.1-.41a.56.56,0,0,0,.15.37,2.06,2.06,0,0,0,.15-.48l.27.46a.62.62,0,0,0,.24-.41l.21.37a1.17,1.17,0,0,0,.12-.58c.09.15.18.3.28.45l.08-.65c.16.24.33.47.5.71l.09-.71a1.69,1.69,0,0,0,.4.56l.2-.79a.56.56,0,0,0,.25.49,2.74,2.74,0,0,0,.18-.71c.06.2.12.39.19.58,0-.23.05-.46.08-.7a2,2,0,0,0,.36.54,1.06,1.06,0,0,0,.13-.6.53.53,0,0,0,.21.35c.12.07.32,0,.29-.16a.21.21,0,0,0,.29.13.34.34,0,0,0,.3.3c-.18-.65-.34-2.51-1-2.79a1.69,1.69,0,0,0,.18.45C22.67,9.55,22.3,9.22,22.27,9.07Z"/><path class="cls-4" d="M3,12.9c.29-.13.44,0,.68-.22,0,.21.07.47,0,.68.1-.15.44-.33.54-.45,0,.12.11.35.13.45s.18-.19.32-.21.09.27.18.32.23-.17.41-.2l0,.2c.17,0,.29-.08.42-.09s.09.3.17.44a3.12,3.12,0,0,1,.44-.09c.28.42.38.45.79.35.09.06.09.25.17.32s.19-.18.32-.23a3.18,3.18,0,0,0,.26.35s.28,0,.21-.06.17.26.2.29a1,1,0,0,0,.23-.33,2.5,2.5,0,0,1,.24.45c0-.08,0-.26.11-.31a5.86,5.86,0,0,1,0,1.11c0-.13,0-.26,0-.39a13.66,13.66,0,0,1-.24,1.56,5.69,5.69,0,0,1-.12-1,1.62,1.62,0,0,1-.32.78c0-.18-.11-.37-.14-.55a2.85,2.85,0,0,1-.34,1.19c0-.31,0-.64,0-1a6.7,6.7,0,0,1-.24.76c0-.24-.09-.42-.11-.65a9.46,9.46,0,0,1-.57,1.15,3.51,3.51,0,0,1,.11-1.37,3.59,3.59,0,0,1-.8,1.48A2.58,2.58,0,0,1,6,16.5c-.14.29-.3.8-.45,1.16a9,9,0,0,0,0-1.27c-.06.21-.33.6-.41.86,0-.09-.35-.51-.37-.6-.1.19-.26.32-.36.48a2,2,0,0,1-.44-1c0,.2,0,.44-.05.65a5.55,5.55,0,0,1-.32-.57,3.93,3.93,0,0,1-.2.58c-.12-.1-.26-.26-.36-.34-.11.17-.1.21-.25.33-.09-.19-.28-.34-.37-.56a3.23,3.23,0,0,0,0,.44C.74,16.45,3.43,13.69,3,12.9Z"/><path class="cls-4" d="M7.45,19.41l-.14.32L7,19.3l-.16.23-.41-.39,0,.33A.4.4,0,0,1,6,19.14l-.11.31a.33.33,0,0,1-.25-.3.5.5,0,0,1-.26.42A1.5,1.5,0,0,0,5,18.82a.68.68,0,0,1-.25.41l-.3-.45a.41.41,0,0,1-.28.43l-.38-.86a1.51,1.51,0,0,1-.15.59c0-.22-.11-.44-.17-.65l-.2.76a5.93,5.93,0,0,1-.44-1.15,8.62,8.62,0,0,1-.25,1.42,2.46,2.46,0,0,1-.35-1.4L1.8,19.31l0-1.56c-.16-.16-.39.11-.46.34A39.17,39.17,0,0,0,.19,23.14c.31-.36.63-.71.94-1.06a1.31,1.31,0,0,0,0,.68l.4-1V23a4.51,4.51,0,0,1,.38-.94A4.35,4.35,0,0,1,2,23c.19-.4.37-.8.55-1.2a2.54,2.54,0,0,1,.06,1l.65-1.07.13,1.32L4.11,22l.16,1.14a6.15,6.15,0,0,0,.5-1.29,1.51,1.51,0,0,1,.17.91l.51-1.06a3.46,3.46,0,0,1,.16,1.35l.54-1.48c.09.48.17.95.26,1.42A4.59,4.59,0,0,0,6.9,21.8l.18,1.32c.13-.46.27-.93.4-1.4a3,3,0,0,1,.17,1.07L8,21.46l.27,1.08a3,3,0,0,0,.45-1L9,22.63a3.18,3.18,0,0,0,.25-1.26.94.94,0,0,1,.24.7,7.94,7.94,0,0,0,0-2.23c-.58.29-.79-.73-1.28.15-.3-.39-.09-.32-.47-.22C7.61,19.72,7.43,19.46,7.45,19.41Z"/><path class="cls-4" d="M5.05,9.07a6.71,6.71,0,0,1-.31,1.19,2.48,2.48,0,0,0,.51-.8,1.85,1.85,0,0,1,0,.81l.45-.63c0,.2,0,.39,0,.59l.56-.49a2.18,2.18,0,0,1,.07.76,2.24,2.24,0,0,0,.47-.45l.09,1,.36-.61a2.77,2.77,0,0,1,.08.76,2.48,2.48,0,0,0,.44-.53,2,2,0,0,0,.08.64l.3-.33.06.68a1.41,1.41,0,0,0,.44-.47,1.57,1.57,0,0,0,0,.53l.31-.4L8.93,12l.17-.33a1.28,1.28,0,0,1-.06.61,1.16,1.16,0,0,1,.26-.39,1.63,1.63,0,0,1,0,.49c0,.07,0,.15-.11.16s-.06-.14,0-.11L9,13l0-.52-.21.4c0-.14-.06-.27-.1-.41a.56.56,0,0,1-.15.37,2.06,2.06,0,0,1-.15-.48l-.27.46a.62.62,0,0,1-.24-.41l-.21.37a1.17,1.17,0,0,1-.12-.58l-.28.45L7.17,12c-.16.24-.33.47-.5.71L6.58,12a1.69,1.69,0,0,1-.4.56L6,11.79a.55.55,0,0,1-.26.49,3.2,3.2,0,0,1-.17-.71c-.06.2-.12.39-.19.58,0-.23-.05-.46-.08-.7a2,2,0,0,1-.36.54,1.06,1.06,0,0,1-.13-.6.53.53,0,0,1-.21.35c-.12.07-.32,0-.29-.16a.21.21,0,0,1-.29.13.34.34,0,0,1-.3.3c.18-.65.34-2.51,1-2.79a1.69,1.69,0,0,1-.18.45C4.65,9.55,5,9.22,5.05,9.07Z"/><path class="cls-4" d="M9.26,3.21a2.22,2.22,0,0,1,.6.24l-.39.21.64.22a1.35,1.35,0,0,1-.56.31,1.55,1.55,0,0,1,.51.18l-.47.19.62.1-.36.08a1.4,1.4,0,0,0,.61.1A1.1,1.1,0,0,0,10,5a1.26,1.26,0,0,0,.46.16c.07,0,.16,0,.18-.07s0,0,0,0L11.22,5l-.49-.15.44-.1-.38-.2a.56.56,0,0,0,.4-.06,2.34,2.34,0,0,0-.43-.26l.51-.14a.65.65,0,0,0-.34-.35l.42-.1a1.23,1.23,0,0,0-.54-.26l.5-.16L10.71,3l.2-.08H9.8l.09,0A3,3,0,0,1,9.26,3.21Z"/><path class="cls-4" d="M16.21,3.21l.5.16a1.18,1.18,0,0,0-.54.26l.41.1a.63.63,0,0,0-.33.35l.51.14a2.05,2.05,0,0,0-.43.26.55.55,0,0,0,.4.06l-.38.2.44.1L16.3,5l.56.06s0,0,0,0,.11.08.18.07A1.26,1.26,0,0,0,17.5,5a1.1,1.1,0,0,0-.44-.15,1.36,1.36,0,0,0,.6-.1l-.35-.08.62-.1-.47-.19A1.55,1.55,0,0,1,18,4.19a1.29,1.29,0,0,1-.56-.31L18,3.66l-.38-.21a2,2,0,0,1,.59-.24,2.7,2.7,0,0,1-.62-.29l.09,0H16.6l.21.08Z"/><path class="cls-4" d="M14.24,4.85l-.09,0a4.79,4.79,0,0,1-.64.21Z"/><path class="cls-4" d="M13.45,3.13a1.27,1.27,0,0,1-.7.4l.67,0-.63.27.87,0a.76.76,0,0,0-.6.31l.56.07-.79.42.92,0a2.87,2.87,0,0,1-.54.37,4.29,4.29,0,0,0,.94-.1,4.16,4.16,0,0,0,.47-.24,1,1,0,0,0-.76-.06l.43-.29a.38.38,0,0,0-.31,0l.73-.42a1.56,1.56,0,0,1-.57,0l.63-.44h-.44l.58-.4-.49,0a.27.27,0,0,1-.16,0H12.44c-.09.07-.18.12-.21.11A3.6,3.6,0,0,0,13.45,3.13Z"/><path class="cls-2" d="M20,33.18c12.59-.91,5.37-17.53,3.76-21.77S23,4.52,23,4.52s1-4.19.17-4.36-3.4,2.7-3.4,2.7-1.92,0-4.45,0H12.05c-2.53,0-4.45,0-4.45,0S5,0,4.19.16s.18,4.36.18,4.36,1,2.53-.7,6.89S-5.58,33.22,8.56,33.22Z"/><path class="cls-1" d="M12.48,28.72a16,16,0,0,1,.23,5.41A3.24,3.24,0,0,1,11.78,36S10.5,37,10,34.08c0-.23-.06-.47-.09-.74-.35-3.84-1.66-4.62-2-4.45Z"/><path class="cls-1" d="M14.49,28.72a15.48,15.48,0,0,0-.19,5.55A3.1,3.1,0,0,0,15.19,36s1.22,1,1.7-1.69c.05-.27.1-.58.13-.93.35-3.84,1.66-4.62,2-4.45Z"/><path class="cls-4" d="M14.3,34.27a11,11,0,0,0,2.57,0h0C16.41,37,15.19,36,15.19,36A3.1,3.1,0,0,1,14.3,34.27Z"/><path class="cls-2" d="M14.49,28.72a15.48,15.48,0,0,0-.19,5.55A3.1,3.1,0,0,0,15.19,36s1.22,1,1.7-1.69c.05-.27.1-.58.13-.93.35-3.84,1.66-4.62,2-4.45"/><path class="cls-4" d="M12.71,34.13A3.24,3.24,0,0,1,11.78,36S10.5,37,10,34.08a7.89,7.89,0,0,0,2.65.05Z"/><path class="cls-2" d="M12.48,28.72a16,16,0,0,1,.23,5.41A3.24,3.24,0,0,1,11.78,36S10.5,37,10,34.08c0-.23-.06-.47-.09-.74-.35-3.84-1.66-4.62-2-4.45"/><ellipse cx="13.63" cy="7.9" rx="0.93" ry="0.48"/><line class="cls-2" x1="22.86" y1="6.92" x2="25.06" y2="6.43"/><line class="cls-2" x1="23.02" y1="8.99" x2="25.04" y2="9.82"/><line class="cls-2" x1="22.9" y1="7.88" x2="25.34" y2="8.07"/><line class="cls-2" x1="4.5" y1="6.92" x2="2.3" y2="6.43"/><line class="cls-2" x1="4.35" y1="8.99" x2="2.32" y2="9.82"/><line class="cls-2" x1="4.46" y1="7.88" x2="2.03" y2="8.07"/><path class="cls-5" d="M9.77,9.12c0,.25-.45.43-1,.4S7.86,9.26,7.88,9s.45-.43,1-.4S9.79,8.87,9.77,9.12Z"/><path class="cls-5" d="M19.61,9.24c0,.25-.45.43-1,.4s-.94-.26-.92-.51.45-.43,1-.4S19.63,9,19.61,9.24Z"/></g></g></svg>