<svg xmlns="http://www.w3.org/2000/svg" viewBox="0 0 33.71 38.6"><defs><style>.cls-1{fill:#edc1a4;}.cls-2{fill:#b28f73;}.cls-3{fill:none;stroke:#000;stroke-miterlimit:10;stroke-width:0.3px;}.cls-4{fill:#f5decf;}</style></defs><g id="Layer_2" data-name="Layer 2"><g id="Layer_2-2" data-name="Layer 2"><path class="cls-1" d="M14.44,31.6C16.37,37.49,26,38.68,29.73,34c.91-1.17,1.4-2.64,2.45-3.68a1,1,0,0,1,.71-.36c.48,0,.68.64.67,1.13-.09,2.53-2.64,4.77-4.69,5.91a13.06,13.06,0,0,1-8.08,1.36,11.44,11.44,0,0,1-5.28-2,7.6,7.6,0,0,1-3-4.69Z"/><path class="cls-2" d="M30.53,34.6a3,3,0,0,0-1.71,1.9c-.06.19-.1.37-.14.54l.19-.09a12.62,12.62,0,0,0,3.05-2.4A2.2,2.2,0,0,0,30.53,34.6Z"/><path class="cls-2" d="M17.87,36.34a4.09,4.09,0,0,0,1.27.49,2.49,2.49,0,0,0,1.43,0,1.27,1.27,0,0,0,.34-.2,9.77,9.77,0,0,1-3.75-1.52s0,.06,0,.09A1.57,1.57,0,0,0,17.87,36.34Z"/><path class="cls-3" d="M14.44,31.6C16.37,37.49,26,38.68,29.73,34c.91-1.17,1.4-2.64,2.45-3.68a1,1,0,0,1,.71-.36c.48,0,.68.64.67,1.13-.09,2.53-2.64,4.77-4.69,5.91a13.06,13.06,0,0,1-8.08,1.36,11.44,11.44,0,0,1-5.28-2,7.6,7.6,0,0,1-3-4.69Z"/><path class="cls-1" d="M18.48,31.47c12.11-3.91,5.68-23.22,5.68-23.22s.38-4.67-.13-4.92-3.15,2.52-3.15,2.52a101.73,101.73,0,0,0-10.1-2.14c-.13-3.16-1-3.54-1-3.54S1.44,6.74.3,16s4.42,13.5,4.42,13.5S9.44,34.39,18.48,31.47Z"/><path class="cls-3" d="M5.35,14.81a3.94,3.94,0,0,1,2.53,2.4c.63,1.9,4,1.26,2.9-1.26A8.1,8.1,0,0,0,7,12.29"/><path d="M8,3.3S9.23,1.21,9.52,1.5A7.11,7.11,0,0,1,10,3.58Z"/><path d="M21.67,6.13s1.59-1.83,1.82-1.49a7.29,7.29,0,0,1,.09,2.13Z"/><path class="cls-2" d="M16.41,8.63a12.2,12.2,0,0,1,.26,1.2c.06.59-.11,1.18,0,1.77a2.69,2.69,0,0,0,2,2,6.22,6.22,0,0,0,3,0,6.48,6.48,0,0,0,2.2-.77A3.13,3.13,0,0,0,25,11.5c-.43-2-.85-3.25-.85-3.25s0-.14,0-.35a1.74,1.74,0,0,0-.11-.18A6,6,0,0,0,22.51,6a5.6,5.6,0,0,0-1.19-.55l-.44.45a22.64,22.64,0,0,0-2.35-.63A2.77,2.77,0,0,0,16.41,8.63Z"/><path class="cls-2" d="M3.88,22.05a6,6,0,0,0-.1-2c-.14-.82-.27-1.64-.41-2.46a3.57,3.57,0,0,0-.46-1.47A3,3,0,0,0,.5,14.82c-.07.37-.15.75-.2,1.13a16.83,16.83,0,0,0,1.06,8.69A3.38,3.38,0,0,0,3.88,22.05Z"/><path class="cls-2" d="M21.78,21.77a2.09,2.09,0,0,0-.34,1.09,5.46,5.46,0,0,0,1.11,2.92,4,4,0,0,0,1.33,1.5,14.83,14.83,0,0,0,1.94-6.86,8.47,8.47,0,0,0-3.26.68A2,2,0,0,0,21.78,21.77Z"/><path class="cls-2" d="M6.91,7.34a1.79,1.79,0,0,0,.71-1.42,5.87,5.87,0,0,0-.49-1.3C7,4.24,7,3.83,6.88,3.44a2.48,2.48,0,0,0-.13-.35A30.86,30.86,0,0,0,3.29,7.74,3.32,3.32,0,0,0,6.91,7.34Z"/><path class="cls-2" d="M14.85,30.65a3.22,3.22,0,0,0-2.14-1.31,4.66,4.66,0,0,0-2.52.38,4,4,0,0,0-1.11.68,3.39,3.39,0,0,0-.79,1.19,14.39,14.39,0,0,0,7.53.53A5.86,5.86,0,0,1,14.85,30.65Z"/><path class="cls-3" d="M18.48,31.47c12.11-3.91,5.68-23.22,5.68-23.22s.38-4.67-.13-4.92-3.15,2.52-3.15,2.52a101.73,101.73,0,0,0-10.1-2.14c-.13-3.16-1-3.54-1-3.54S1.44,6.74.3,16s4.42,13.5,4.42,13.5S9.44,34.39,18.48,31.47Z"/><path class="cls-1" d="M21.8,26.83a3,3,0,0,0,1,1.83c.3.29.61.56.89.86a3.51,3.51,0,0,1,.54.74,1.5,1.5,0,0,1,.18.54A1.32,1.32,0,0,1,23.36,32a2.59,2.59,0,0,1-2.07-.49,2.33,2.33,0,0,1-.36-.28,7.1,7.1,0,0,1-1.47-2.18c0-.07-.07-.14-.1-.22Z"/><path class="cls-1" d="M5.29,27.33a2.86,2.86,0,0,1-.55,2c-.16.25-.33.5-.49.76a3.8,3.8,0,0,0-.49,1.11,1.18,1.18,0,0,0,0,.56,1.27,1.27,0,0,0,1.33.88,2.67,2.67,0,0,0,2-1.12c0-.06.1-.13.14-.2a7,7,0,0,0,.88-2.43,1.65,1.65,0,0,0,0-.31Z"/><path class="cls-1" d="M21.36,16.65a5.73,5.73,0,0,1,3.16-2.09,3.51,3.51,0,0,1,2.33.13c.78.38,1.55,1.47.95,2.32-.45.63-1.46.58-2.13.44a3.78,3.78,0,0,0-.57-.1,1.58,1.58,0,0,0-1.27.63,4,4,0,0,0-.66,1.32"/><path class="cls-3" d="M21.36,16.65a5.73,5.73,0,0,1,3.16-2.09,3.51,3.51,0,0,1,2.33.13c.78.38,1.55,1.47.95,2.32-.45.63-1.46.58-2.13.44a3.78,3.78,0,0,0-.57-.1,1.58,1.58,0,0,0-1.27.63,4,4,0,0,0-.66,1.32"/><path class="cls-2" d="M5.05,32.64a2.67,2.67,0,0,0,2-1.12c-.38-.22-2.41-1.25-2.79-1.43a3.8,3.8,0,0,0-.49,1.11,1.18,1.18,0,0,0,0,.56A1.27,1.27,0,0,0,5.05,32.64Z"/><path class="cls-3" d="M5.29,27.33a2.86,2.86,0,0,1-.55,2c-.16.25-.33.5-.49.76a3.8,3.8,0,0,0-.49,1.11,1.18,1.18,0,0,0,0,.56,1.27,1.27,0,0,0,1.33.88,2.67,2.67,0,0,0,2-1.12c0-.06.1-.13.14-.2a7,7,0,0,0,.88-2.43,1.65,1.65,0,0,0,0-.31"/><path class="cls-2" d="M23.36,32a1.32,1.32,0,0,0,1.09-1.2,1.5,1.5,0,0,0-.18-.54,3.51,3.51,0,0,0-.54-.74l0,.05a14.8,14.8,0,0,1-2.4,1.94A2.59,2.59,0,0,0,23.36,32Z"/><path class="cls-3" d="M21.8,26.83a3,3,0,0,0,1,1.83c.3.29.61.56.89.86a3.51,3.51,0,0,1,.54.74,1.5,1.5,0,0,1,.18.54A1.32,1.32,0,0,1,23.36,32a2.59,2.59,0,0,1-2.07-.49,2.33,2.33,0,0,1-.36-.28,7.1,7.1,0,0,1-1.47-2.18c0-.07-.07-.14-.1-.22"/><line class="cls-3" x1="21.15" y1="10.44" x2="24.05" y2="10.12"/><line class="cls-3" x1="20.64" y1="12.91" x2="23.17" y2="14.36"/><line class="cls-3" x1="21.06" y1="11.67" x2="23.7" y2="12.22"/><line class="cls-3" x1="7.42" y1="7.66" x2="5.23" y2="5.73"/><line class="cls-3" x1="6.41" y1="9.98" x2="3.5" y2="9.7"/><line class="cls-3" x1="6.78" y1="8.72" x2="4.31" y2="7.65"/><path d="M14.81,9.3c-.05.23-.78.25-.78.25s-.64-.34-.59-.56.4-.34.78-.25S14.86,9.08,14.81,9.3Z"/><path class="cls-3" d="M12.49,9.85c0,.7.24,1.3.72,1.42a1,1,0,0,0,.86-.25,1,1,0,0,0,.62.64c.49.13,1-.26,1.33-.89"/><path class="cls-3" d="M17.6,8.41a1.4,1.4,0,0,0,2.5.39"/><path class="cls-3" d="M9,7a1.4,1.4,0,0,0,2.5.39"/><path class="cls-4" d="M19.8,10.65c0,.25-.45.43-1,.4s-.94-.26-.93-.51.45-.43,1-.4S19.81,10.4,19.8,10.65Z"/><path class="cls-4" d="M10.24,9.26c0,.25-.45.43-1,.4s-.93-.26-.92-.51.45-.43,1-.4S10.25,9,10.24,9.26Z"/></g></g></svg>