<svg xmlns="http://www.w3.org/2000/svg" viewBox="0 0 35.79 35.44"><defs><style>.cls-1{fill:#7c9473;}</style></defs><g id="Layer_2" data-name="Layer 2"><g id="Layer_1-2" data-name="Layer 1"><path class="cls-1" d="M35.21,31.21c-4-5.09-9.82-9.37-14.74-13.73,4.77-4.72,9.6-9.39,14.53-14,2-1.83-1-4.77-2.94-2.95q-7.46,6.9-14.7,14C13.13,10.52,8.87,6,3.93,3.09,2.64,2.32.79,3.93,1.75,5.27c3.36,4.65,8.17,8.48,12.59,12.32C9.65,22.28,5,27,.56,31.93c-1.76,1.93,1.05,4.78,2.88,2.88q7-7.26,14.09-14.39c5,4.41,10.9,8.74,14.88,13.93a1.53,1.53,0,0,0,2.36.31c.15-.17.29-.34.44-.5A2.17,2.17,0,0,0,35.21,31.21Z"/></g></g></svg>