<svg xmlns="http://www.w3.org/2000/svg" viewBox="0 0 58.09 55.65"><defs><style>.cls-1{fill:#7c9473;}</style></defs><g id="Layer_2" data-name="Layer 2"><g id="Layer_1-2" data-name="Layer 1"><path class="cls-1" d="M57.86,24.06c0-.22,0-.42-.08-.61A20.5,20.5,0,0,0,56.32,18l0-.14A26.15,26.15,0,0,0,44,4.55a31.91,31.91,0,0,0-10.83-4C24.52-.91,16,.38,9.55,6.65A32.49,32.49,0,0,0,0,29.7c.26,17.75,16.46,29.47,33.3,25C42,52.38,50.23,48.61,54.75,40.45A26.72,26.72,0,0,0,57.86,24.06ZM42.59,43.81c-6.82,4.3-17.46,7.29-25,3.52C2.52,39.79,3.91,15.34,18.83,8.2c7.24-3.46,17.72-1.1,24,3.33A21.48,21.48,0,0,1,51,23.67l.12.55A19.73,19.73,0,0,1,42.59,43.81Z"/><path class="cls-1" d="M32.92,28c3.32-3.29,7.57-6.54,9.26-11a1.65,1.65,0,0,0-2-2C35.72,16.67,32.38,21,29,24.22,25.71,21,22.37,16.67,17.92,15a1.64,1.64,0,0,0-2,2c1.69,4.43,5.94,7.68,9.26,11L16.65,36.4c-2.54,2.49,1.38,6.41,3.91,3.9L29,31.88l8.49,8.42c2.53,2.51,6.45-1.41,3.91-3.9Z"/></g></g></svg>